<?xml version="1.0" encoding="UTF-8" standalone="no"?>
<!DOCTYPE svg PUBLIC "-//W3C//DTD SVG 1.1//EN" "http://www.w3.org/Graphics/SVG/1.1/DTD/svg11.dtd">
<svg width="100%" height="100%" viewBox="0 0 180 180" version="1.1" xmlns="http://www.w3.org/2000/svg" xmlns:xlink="http://www.w3.org/1999/xlink" xml:space="preserve" xmlns:serif="http://www.serif.com/" style="fill-rule:evenodd;clip-rule:evenodd;stroke-linejoin:round;stroke-miterlimit:2;">
    <g transform="matrix(1,0,0,1,47.5878,19.4858)">
        <g transform="matrix(1,0,0,1,-47.5878,-19.4858)">
            <circle cx="90" cy="90" r="90" style="fill:rgb(104,36,109);"/>
        </g>
        <g transform="matrix(1.2289,0,0,1.2289,-1092.81,-523.207)">
            <path d="M923.773,418.846C959.253,418.846 988.058,447.651 988.058,483.131C988.058,518.611 959.253,547.416 923.773,547.416C888.293,547.416 859.488,518.611 859.488,483.131C859.488,447.651 888.293,418.846 923.773,418.846ZM923.773,422.101C890.09,422.101 862.743,449.448 862.743,483.131C862.743,516.814 890.09,544.161 923.773,544.161C957.456,544.161 984.803,516.814 984.803,483.131C984.803,449.448 957.456,422.101 923.773,422.101Z" style="fill:white;"/>
        </g>
        <g transform="matrix(1,0,0,1,-875.331,-408.638)">
            <g transform="matrix(0.78342,-0.621493,0.621493,0.78342,-82.5841,640.464)">
                <text x="877.637px" y="438.722px" style="font-family:'Helvetica-Bold', 'Helvetica';font-weight:700;font-size:20px;fill:white;">D</text>
            </g>
            <g transform="matrix(0.915757,-0.401734,0.401734,0.915757,-97.7103,393.334)">
                <text x="888.996px" y="429.644px" style="font-family:'Helvetica-Bold', 'Helvetica';font-weight:700;font-size:20px;fill:white;">U</text>
            </g>
            <g transform="matrix(0.98966,-0.143433,0.143433,0.98966,-51.4519,133.799)">
                <text x="902.28px" y="423.761px" style="font-family:'Helvetica-Bold', 'Helvetica';font-weight:700;font-size:20px;fill:white;">R</text>
            </g>
            <g transform="matrix(0.993779,0.111372,-0.111372,0.993779,52.6607,-99.4682)">
                <text x="916.671px" y="421.632px" style="font-family:'Helvetica-Bold', 'Helvetica';font-weight:700;font-size:20px;fill:white;">H</text>
            </g>
            <g transform="matrix(0.93005,0.367432,-0.367432,0.93005,220.641,-312.514)">
                <text x="931.109px" y="423.235px" style="font-family:'Helvetica-Bold', 'Helvetica';font-weight:700;font-size:20px;fill:white;">A</text>
            </g>
            <g transform="matrix(0.790333,0.612678,-0.612678,0.790333,460.577,-488.987)">
                <text x="944.733px" y="428.443px" style="font-family:'Helvetica-Bold', 'Helvetica';font-weight:700;font-size:20px;fill:white;">M</text>
            </g>
            <g transform="matrix(0.670968,0.741486,-0.741486,0.670968,668.232,-465.744)">
                <text x="858.902px" y="520.071px" style="font-family:'Helvetica-Bold', 'Helvetica';font-weight:700;font-size:20px;fill:white;">R</text>
            </g>
            <g transform="matrix(0.842154,0.539236,-0.539236,0.842154,425.56,-385.981)">
                <text x="872.08px" y="533.915px" style="font-family:'Helvetica-Bold', 'Helvetica';font-weight:700;font-size:20px;fill:white;">O</text>
            </g>
            <g transform="matrix(0.957638,0.287975,-0.287975,0.957638,194.448,-233.145)">
                <text x="889.677px" y="544.35px" style="font-family:'Helvetica-Bold', 'Helvetica';font-weight:700;font-size:20px;fill:white;">B</text>
            </g>
            <g transform="matrix(0.999754,0.0221944,-0.0221944,0.999754,12.4169,-20.0223)">
                <text x="908.229px" y="549.38px" style="font-family:'Helvetica-Bold', 'Helvetica';font-weight:700;font-size:20px;fill:white;">O</text>
            </g>
            <g transform="matrix(0.974148,-0.22591,0.22591,0.974148,-100.051,223.874)">
                <text x="928.153px" y="549.092px" style="font-family:'Helvetica-Bold', 'Helvetica';font-weight:700;font-size:20px;fill:white;">T</text>
            </g>
            <g transform="matrix(0.913283,-0.407325,0.407325,0.913283,-139.849,432.003)">
                <text x="944.677px" y="544.45px" style="font-family:'Helvetica-Bold', 'Helvetica';font-weight:700;font-size:20px;fill:white;">I</text>
            </g>
            <g transform="matrix(0.823883,-0.56676,0.56676,0.823883,-138.809,635.256)">
                <text x="952.749px" y="540.978px" style="font-family:'Helvetica-Bold', 'Helvetica';font-weight:700;font-size:20px;fill:white;">C</text>
            </g>
            <g transform="matrix(0.657604,-0.753364,0.753364,0.657604,-67.722,910.601)">
                <text x="967.924px" y="529.804px" style="font-family:'Helvetica-Bold', 'Helvetica';font-weight:700;font-size:20px;fill:white;">S</text>
            </g>
        </g>
        <g transform="matrix(1,0,0,1,-47.5878,-20.0873)">
            <g transform="matrix(1,0,0,1,0,-4.975)">
                <g>
                    <g transform="matrix(1,0,0,1,-0.228671,2.5125)">
                        <g transform="matrix(1.01337,0,0,1.01337,2.11344,0.033323)">
                            <circle cx="69.663" cy="73.953" r="6.168" style="fill:white;"/>
                        </g>
                        <g transform="matrix(1.01337,0,0,1.01337,37.1561,0.00832299)">
                            <circle cx="69.663" cy="73.953" r="6.168" style="fill:white;"/>
                        </g>
                    </g>
                    <g transform="matrix(1.27327,0,0,1.36272,-7.27467,-80.8954)">
                        <path d="M107.812,109.795L107.812,122.637C107.812,126.181 104.733,129.058 100.94,129.058L51.854,129.058C48.061,129.058 44.982,126.181 44.982,122.637L44.982,109.795C44.982,106.252 48.061,103.374 51.854,103.374L100.94,103.374C104.733,103.374 107.812,106.252 107.812,109.795ZM104.671,109.795C104.671,107.872 102.999,106.31 100.94,106.31L51.854,106.31C49.795,106.31 48.124,107.872 48.124,109.795L48.124,122.637C48.124,124.561 49.795,126.123 51.854,126.123L100.94,126.123C102.999,126.123 104.671,124.561 104.671,122.637L104.671,109.795Z" style="fill:white;"/>
                    </g>
                </g>
                <g transform="matrix(1.22685,0,0,0.832705,95.1677,-2.00196)">
                    <path d="M33.282,85.837L33.282,105.052C33.282,106.377 32.552,107.453 31.652,107.453C30.752,107.453 30.022,106.377 30.022,105.052L30.022,85.837C30.022,84.511 30.752,83.435 31.652,83.435C32.552,83.435 33.282,84.511 33.282,85.837Z" style="fill:white;"/>
                </g>
                <g transform="matrix(1.22685,0,0,0.832705,7.16765,-2.00196)">
                    <path d="M33.282,85.837L33.282,105.052C33.282,106.377 32.552,107.453 31.652,107.453C30.752,107.453 30.022,106.377 30.022,105.052L30.022,85.837C30.022,84.511 30.752,83.435 31.652,83.435C32.552,83.435 33.282,84.511 33.282,85.837Z" style="fill:white;"/>
                </g>
                <g transform="matrix(0.864793,0,0,0.864793,25.0806,13.3569)">
                    <path d="M73.067,44.193C73.48,43.478 74.243,43.037 75.069,43.037C75.896,43.037 76.659,43.478 77.072,44.193C77.793,45.441 78.605,46.848 79.325,48.096C79.739,48.812 79.739,49.693 79.325,50.409C78.912,51.124 78.149,51.565 77.323,51.565L72.816,51.565C71.99,51.565 71.226,51.124 70.813,50.409C70.4,49.693 70.4,48.812 70.813,48.096C71.534,46.848 72.346,45.441 73.067,44.193Z" style="fill:white;"/>
                </g>
            </g>
            <g transform="matrix(0.795796,0,0,0.973371,29.2033,5.87832)">
                <path d="M107.812,109.795L107.812,122.637C107.812,126.181 104.293,129.058 99.959,129.058L52.836,129.058C48.501,129.058 44.982,126.181 44.982,122.637L44.982,109.795C44.982,106.252 48.501,103.374 52.836,103.374L99.959,103.374C104.293,103.374 107.812,106.252 107.812,109.795Z" style="fill:white;"/>
            </g>
            <g transform="matrix(0.397898,0,0,0.486685,59.6017,41.6892)">
                <path d="M107.812,109.795L107.812,122.637C107.812,126.181 104.293,129.058 99.959,129.058L52.836,129.058C48.501,129.058 44.982,126.181 44.982,122.637L44.982,109.795C44.982,106.252 48.501,103.374 52.836,103.374L99.959,103.374C104.293,103.374 107.812,106.252 107.812,109.795Z" style="fill:white;"/>
            </g>
        </g>
    </g>
</svg>
